<?xml version="1.0" standalone="no"?>
<!DOCTYPE svg PUBLIC "-//W3C//DTD SVG 20010904//EN"
 "http://www.w3.org/TR/2001/REC-SVG-20010904/DTD/svg10.dtd">
<svg version="1.0" xmlns="http://www.w3.org/2000/svg"
 width="2816.000000pt" height="1536.000000pt" viewBox="0 0 2816.000000 1536.000000"
 preserveAspectRatio="xMidYMid meet">
<metadata>
Created by potrace 1.16, written by Peter Selinger 2001-2019
</metadata>
<g transform="translate(0.000000,1536.000000) scale(0.100000,-0.100000)"
fill="#E8DFE8" stroke="none">
<path d="M0 7680 l0 -7680 14080 0 14080 0 0 7680 0 7680 -14080 0 -14080 0 0
-7680z m7772 6689 c9 -5 27 -35 39 -66 19 -51 22 -76 22 -206 -1 -128 -4 -153
-22 -192 -12 -25 -21 -53 -21 -63 0 -22 -27 -103 -71 -212 -25 -64 -40 -85
-87 -127 -118 -103 -267 -219 -318 -246 -58 -31 -58 -31 -74 -162 -6 -49 -17
-112 -25 -139 -20 -65 -19 -76 4 -76 34 0 155 -69 192 -110 60 -65 99 -160
106 -254 9 -130 -9 -209 -68 -297 -56 -83 -160 -181 -242 -228 -42 -24 -66
-31 -108 -31 l-54 0 -18 -77 c-20 -89 -46 -163 -57 -163 -4 0 -10 -22 -14 -50
-4 -30 -16 -60 -31 -79 -15 -17 -25 -41 -25 -60 0 -49 -52 -140 -122 -211
l-63 -64 -125 -1 c-124 0 -125 0 -165 30 -71 54 -84 68 -128 134 -40 61 -42
70 -46 149 -3 91 10 142 53 201 30 41 86 71 128 70 53 0 151 -42 165 -70 15
-28 17 -133 4 -175 -5 -16 -12 -41 -15 -56 -5 -21 -13 -27 -38 -30 -46 -4 -47
-30 -3 -74 l37 -36 75 38 c73 38 121 86 161 160 10 19 92 344 92 365 0 5 -19
9 -43 9 -25 0 -63 10 -93 24 -27 14 -76 33 -109 44 -91 30 -115 46 -173 114
-66 78 -86 115 -112 214 -23 83 -22 142 2 264 19 100 115 255 211 343 55 50
184 147 222 168 87 46 293 178 320 204 21 22 37 55 53 110 55 188 87 284 112
340 15 33 31 76 35 95 4 19 12 44 19 55 7 11 25 50 40 87 15 37 35 73 43 79 8
7 28 39 44 72 35 68 101 144 144 164 17 8 41 20 55 28 24 14 57 11 92 -6z
m5084 -764 c7 -19 14 -45 14 -58 0 -39 57 -154 128 -256 36 -53 80 -117 98
-143 82 -120 128 -351 89 -445 -28 -68 -62 -103 -98 -102 -18 0 -26 3 -18 6 7
3 24 28 37 57 19 42 24 67 24 140 0 82 -3 93 -36 156 -36 69 -239 316 -248
302 -2 -4 -5 -163 -7 -352 -2 -341 5 -553 22 -598 9 -23 -4 -63 -19 -61 -20 3
-30 -3 -35 -22 -4 -16 -11 -19 -29 -14 -14 4 -18 3 -10 -3 28 -19 -96 -99
-206 -132 -85 -26 -134 -23 -204 9 -61 30 -82 62 -79 125 3 58 32 107 110 179
75 70 143 98 241 100 51 1 84 -3 92 -11 6 -6 18 -12 26 -12 11 0 13 34 10 193
-4 263 12 909 24 924 5 7 7 17 3 23 -10 16 4 30 31 30 19 0 28 -8 40 -35z
m-10251 -62 c27 -45 25 -977 -1 -1102 -10 -48 -13 -186 -5 -200 5 -8 5 -21 1
-30 -4 -9 -13 -35 -19 -58 -8 -30 -27 -56 -70 -96 -106 -98 -223 -117 -438
-71 -13 2 -38 18 -58 35 -40 35 -43 61 -24 165 10 52 17 64 63 106 56 52 142
99 190 103 17 2 50 8 73 14 54 14 122 1 174 -33 22 -15 42 -26 45 -24 6 6 7
117 5 443 -3 354 13 715 32 745 15 24 19 25 32 3z m21752 -79 c-6 -62 -10 -59
103 -68 65 -5 153 -19 190 -31 11 -4 20 -2 20 3 0 5 -26 14 -57 21 -87 17
-203 53 -203 62 0 12 120 10 190 -2 30 -5 105 -16 165 -24 101 -13 211 -31
340 -55 46 -9 145 -24 239 -36 21 -2 42 -6 46 -9 3 -2 62 -11 131 -20 208 -26
450 -81 492 -110 30 -21 42 -19 55 10 16 35 30 31 48 -15 14 -35 19 -39 41
-34 16 4 28 2 34 -7 12 -20 -9 -39 -46 -39 -31 0 -32 -1 -48 -69 -10 -39 -20
-91 -23 -118 -3 -26 -9 -57 -14 -68 -4 -11 -13 -47 -18 -80 -6 -33 -18 -91
-27 -130 -9 -38 -20 -97 -24 -130 -5 -33 -14 -78 -20 -101 -15 -57 -41 -203
-41 -237 0 -16 -7 -35 -15 -44 -9 -8 -13 -23 -10 -33 4 -13 -2 -19 -25 -23
-17 -4 -57 -25 -89 -48 -50 -35 -68 -42 -134 -49 -82 -10 -118 -1 -165 39 -30
26 -39 79 -19 118 30 57 105 130 159 153 43 18 65 22 125 18 43 -3 82 -12 97
-22 l26 -16 1 32 c4 77 7 119 18 218 7 57 14 108 17 111 7 12 64 233 60 236
-3 4 -176 27 -321 43 -55 6 -118 13 -141 16 l-41 5 -12 -118 c-7 -65 -19 -149
-28 -188 -8 -38 -21 -100 -28 -137 -17 -85 -33 -115 -92 -175 -67 -67 -151
-107 -228 -107 -83 -1 -115 21 -115 79 0 50 46 144 79 161 12 6 32 21 44 32
38 36 126 44 188 18 19 -8 26 11 39 104 11 76 28 181 43 267 l13 72 -26 6
c-14 4 -70 13 -125 21 -55 8 -149 23 -210 33 -60 11 -113 17 -116 13 -4 -4
-16 -61 -29 -127 -12 -66 -25 -133 -30 -150 -5 -16 -18 -79 -30 -140 -43 -224
-46 -231 -120 -279 -73 -47 -122 -65 -176 -66 -35 0 -51 7 -98 46 -31 26 -56
50 -56 54 0 16 52 126 68 144 44 49 104 78 169 84 58 4 68 2 82 -15 17 -22 60
-40 62 -26 9 52 29 208 30 223 1 22 37 221 45 247 5 18 1 23 -17 27 -13 3
-116 24 -229 46 -162 33 -208 45 -219 61 -27 38 -38 22 -50 -71 -6 -50 -20
-134 -30 -188 -11 -53 -25 -128 -31 -167 -7 -38 -18 -102 -26 -140 -7 -39 -11
-80 -8 -91 10 -36 -32 -88 -110 -137 -94 -60 -125 -70 -189 -65 -60 6 -143 42
-157 69 -34 62 54 197 155 239 66 27 145 31 185 10 29 -15 40 -1 40 53 0 25 5
37 14 37 17 0 20 8 35 95 7 39 19 101 27 139 8 38 14 80 14 95 0 15 7 54 16
86 8 33 17 85 20 115 3 30 9 73 15 94 10 37 9 41 -15 59 -30 21 -26 37 9 37
21 0 25 7 35 54 7 37 17 56 28 59 29 6 35 -4 29 -59z m-2618 -3769 c38 -44 43
-107 11 -148 -28 -35 -25 -51 13 -68 44 -19 72 -77 72 -154 0 -53 -4 -66 -36
-112 -49 -72 -79 -93 -153 -106 -60 -10 -66 -9 -119 16 -42 21 -60 37 -75 68
-24 48 -19 74 17 92 32 16 61 11 62 -11 3 -64 24 -86 79 -84 57 3 96 26 119
70 17 33 17 41 5 83 -17 56 -51 75 -115 65 -32 -5 -46 -3 -60 10 -28 26 -24
36 31 72 46 30 71 66 83 119 10 47 -60 70 -130 43 -47 -17 -53 -25 -69 -87 -2
-7 -17 -19 -35 -28 -45 -24 -57 -9 -41 53 14 51 59 102 92 102 11 0 28 8 39
19 14 14 35 19 98 20 l80 2 32 -36z m241 -572 c-1 -26 -101 -92 -160 -106 -14
-3 -88 -22 -165 -41 -245 -63 -311 -66 -303 -13 4 24 26 32 123 40 39 3 115
17 170 32 97 25 120 32 250 74 67 22 85 25 85 14z m-193 -169 c3 -9 1 -50 -5
-91 -8 -59 -23 -101 -67 -190 -32 -63 -56 -115 -54 -117 4 -3 160 32 165 37 1
1 -4 34 -10 74 -7 40 -9 78 -5 85 5 7 9 30 9 51 0 21 5 37 11 37 7 0 17 7 24
17 18 24 35 7 35 -35 1 -20 9 -73 18 -117 l17 -80 35 12 c19 6 50 12 68 12 27
1 32 -2 32 -23 0 -20 -10 -28 -60 -48 -33 -12 -60 -28 -60 -34 0 -6 9 -37 21
-70 11 -32 22 -66 25 -75 4 -11 -8 -27 -32 -48 -44 -35 -61 -39 -67 -13 -3 9
-13 50 -23 90 -21 83 -24 84 -115 53 -100 -36 -204 -59 -214 -50 -11 11 29
133 52 160 8 9 13 20 11 25 -1 5 8 38 20 74 12 36 23 92 23 125 2 82 5 91 42
110 18 9 43 23 57 31 32 18 39 18 47 -2z m-12162 -611 c11 -11 15 -28 13 -50
-4 -31 -2 -34 16 -28 98 32 144 0 111 -77 -6 -15 -3 -16 27 -8 46 14 112 12
126 -2 27 -27 12 -63 -58 -148 -86 -103 -86 -113 -2 -95 46 10 43 -17 -5 -50
-47 -31 -104 -34 -133 -5 -33 33 -27 49 66 161 35 43 64 82 64 88 0 41 -112
-29 -189 -118 -29 -33 -61 -63 -72 -66 -19 -6 -49 9 -49 24 0 4 25 36 55 71
57 68 114 164 103 175 -16 17 -160 -85 -226 -160 -41 -46 -59 -54 -80 -33 -23
23 -12 44 64 118 74 73 129 150 122 170 -2 5 -27 -1 -56 -15 -30 -14 -60 -25
-67 -25 -33 0 -22 22 27 55 59 39 115 47 143 18z m494 -254 c25 -9 31 -16 31
-41 0 -25 3 -29 18 -23 9 4 36 12 60 17 54 12 99 -11 126 -66 16 -33 17 -43 7
-78 -7 -23 -33 -63 -59 -90 -60 -65 -126 -98 -192 -98 -51 0 -69 10 -97 56
-11 18 -13 17 -40 -16 -15 -19 -47 -56 -70 -81 -24 -25 -43 -50 -43 -54 0 -5
15 -21 33 -36 41 -34 30 -46 -31 -31 -26 6 -72 14 -102 17 -40 5 -61 13 -78
31 -13 13 -31 24 -40 24 -17 1 -52 22 -52 33 0 15 39 15 86 0 l54 -17 37 31
c35 28 101 103 254 292 37 45 57 77 51 83 -12 12 -87 -27 -112 -60 -14 -17
-24 -22 -31 -15 -26 26 56 107 125 123 17 5 31 8 32 9 1 1 15 -4 33 -10z
m17038 -258 c3 -12 11 -17 19 -14 23 9 74 -17 74 -38 0 -20 -28 -39 -59 -39
-18 0 -20 -7 -22 -72 -1 -40 -1 -91 -1 -113 4 -272 -5 -532 -19 -541 -5 -3
-16 -22 -25 -42 -20 -49 -40 -70 -96 -98 -61 -31 -99 -31 -137 2 -37 31 -39
60 -10 124 47 104 101 145 180 138 l48 -5 -6 201 c-3 111 -6 202 -7 203 -1 1
-87 -1 -193 -4 -226 -7 -205 14 -190 -188 8 -97 7 -141 0 -157 -7 -13 -14 -59
-16 -103 -7 -101 -22 -136 -77 -179 -51 -38 -174 -91 -195 -82 -8 3 -23 23
-34 44 -16 32 -18 46 -10 73 19 64 44 103 88 137 47 35 53 36 150 16 l34 -7
-6 48 c-4 26 -7 124 -7 218 l0 170 -132 -7 c-73 -3 -171 -7 -216 -7 -51 -1
-85 -6 -87 -13 -2 -6 -8 -94 -14 -196 -6 -102 -16 -204 -23 -228 -10 -34 -10
-47 0 -62 29 -47 6 -86 -97 -159 -36 -25 -54 -31 -95 -31 -48 0 -55 4 -104 52
-65 62 -64 80 6 145 47 44 47 44 112 41 48 -3 74 -9 97 -26 l32 -23 6 23 c6
28 9 232 6 519 -1 134 2 226 9 244 l11 28 22 -21 c15 -14 27 -18 38 -12 34 19
257 33 554 33 171 1 320 -2 333 -7 19 -6 24 -4 29 13 7 26 23 27 30 2z m-8977
-2311 c12 -8 15 -82 15 -532 0 -346 -4 -552 -12 -608 -7 -47 -15 -134 -19
-193 -6 -102 -9 -111 -38 -150 -67 -88 -180 -132 -341 -132 -55 0 -112 3 -126
7 -14 4 -47 28 -72 53 -40 38 -47 51 -47 83 0 72 19 113 84 177 87 87 156 119
269 124 104 4 126 -1 167 -35 17 -15 33 -25 35 -23 2 2 6 218 8 479 6 478 19
739 41 752 14 10 18 10 36 -2z m-7542 -77 c2 -17 12 -39 24 -49 20 -19 21 -19
14 4 -3 12 -8 30 -11 41 -3 10 1 24 10 31 21 17 45 -4 45 -40 0 -39 38 -148
63 -182 12 -17 49 -49 82 -71 94 -64 209 -184 223 -233 18 -62 14 -167 -9
-283 -18 -85 -19 -110 -10 -141 15 -50 1 -145 -34 -232 -24 -61 -49 -97 -59
-87 -3 2 2 31 10 64 19 83 17 152 -6 228 -17 55 -29 73 -73 113 -28 26 -77 63
-107 82 -30 20 -69 49 -86 65 l-31 28 -5 -43 c-3 -24 -3 -70 1 -103 3 -33 3
-112 -1 -175 -3 -63 -7 -169 -7 -236 -1 -114 -3 -124 -32 -182 -40 -81 -134
-173 -223 -217 -73 -37 -113 -42 -181 -24 -75 19 -94 31 -115 70 -54 104 12
253 156 347 61 41 181 69 229 55 19 -6 37 -8 39 -4 10 16 25 180 31 346 4 99
8 209 10 245 2 36 6 108 9 160 13 239 20 398 20 428 0 41 20 37 24 -5z m14782
-2890 c19 -9 42 -19 50 -23 8 -4 17 -18 18 -31 2 -13 10 -32 18 -43 22 -31 17
-51 -23 -106 -44 -59 -116 -99 -178 -100 -64 -1 -135 11 -135 22 0 6 -6 8 -14
5 -8 -3 -16 2 -19 14 -6 23 -35 25 -44 3 -4 -10 1 -22 11 -30 16 -11 17 -17 6
-51 -15 -49 -77 -209 -97 -250 -8 -17 -12 -36 -9 -42 4 -6 -4 -32 -17 -58 -14
-26 -35 -84 -48 -128 -12 -44 -33 -99 -45 -122 -12 -23 -25 -68 -29 -100 -10
-86 -33 -106 -60 -53 -14 26 -14 30 2 39 14 7 15 13 6 33 -8 18 -8 30 3 49 7
13 16 44 20 69 4 25 21 79 38 120 18 41 40 104 50 140 9 36 24 79 33 95 20 38
51 132 64 193 22 104 26 118 38 140 7 13 10 34 7 47 -5 18 0 28 16 39 13 9 37
34 53 57 23 32 47 50 95 71 72 31 124 31 190 1z m-2328 -197 c9 -22 5 -34 -39
-103 -47 -75 -103 -183 -103 -200 0 -12 -61 -166 -70 -178 -4 -5 -15 -37 -25
-69 -9 -33 -30 -86 -46 -119 -17 -32 -27 -66 -24 -76 3 -11 -3 -25 -15 -36
-11 -10 -20 -22 -20 -27 0 -5 -25 -63 -55 -130 -30 -66 -55 -129 -55 -139 0
-10 -9 -33 -20 -51 -14 -23 -20 -27 -20 -15 0 10 -7 20 -15 24 -26 9 -8 87 45
198 26 55 55 123 63 150 8 28 26 71 40 98 14 26 21 47 16 47 -6 0 -30 -14 -55
-31 -24 -16 -59 -35 -77 -41 -17 -6 -37 -15 -44 -20 -9 -7 -28 3 -62 32 -63
53 -71 84 -42 158 12 29 21 65 21 81 0 22 9 34 38 54 l38 25 20 -22 c41 -45
47 -56 36 -69 -6 -7 -16 -43 -23 -81 -9 -55 -9 -70 2 -76 16 -11 65 14 82 40
14 24 27 26 27 5 0 -23 18 -18 45 11 30 32 115 200 115 226 0 11 9 32 20 47
10 15 29 58 41 95 12 37 30 71 40 76 9 6 23 26 29 45 12 38 55 95 71 95 5 0
14 -11 21 -24z m-6181 -130 c97 -18 111 -25 188 -105 76 -79 125 -184 122
-264 -2 -52 -39 -174 -72 -240 -66 -129 -235 -298 -368 -366 -25 -13 -48 -27
-51 -31 -3 -4 -29 -13 -58 -19 -30 -6 -63 -16 -74 -22 -39 -21 -133 -26 -288
-18 -164 10 -230 21 -268 45 -18 12 -21 18 -12 29 7 8 8 20 4 26 -7 12 12 11
167 -7 31 -4 88 -3 125 1 l69 7 -30 16 c-30 17 -29 17 68 23 65 5 104 12 115
22 9 8 33 18 52 22 69 14 264 158 344 253 66 80 84 114 100 195 19 90 11 169
-23 235 -21 42 -89 99 -130 109 -32 8 -201 -14 -218 -29 -22 -18 -16 -75 10
-93 21 -15 22 -14 27 7 5 21 11 24 40 20 6 -1 10 -17 10 -36 0 -29 5 -36 33
-46 28 -10 30 -13 13 -19 -12 -5 -16 -10 -9 -14 15 -10 -21 -83 -50 -101 -12
-8 -46 -19 -76 -24 -47 -9 -57 -7 -86 12 -50 32 -69 81 -63 164 5 62 9 74 51
131 50 70 81 92 154 115 60 18 89 19 184 2z m6745 -154 c6 -4 18 -29 27 -57
13 -43 15 -46 16 -20 1 17 5 36 9 42 10 16 60 -161 77 -272 3 -16 16 -72 30
-124 14 -51 25 -105 25 -120 0 -14 4 -33 10 -41 7 -12 12 -12 34 0 14 7 28 21
32 32 3 10 8 18 12 19 33 5 132 5 139 0 6 -3 22 -27 37 -54 20 -33 27 -56 23
-75 -4 -15 -10 -48 -15 -73 -5 -31 -21 -61 -45 -89 -19 -23 -43 -57 -52 -76
-9 -19 -22 -34 -29 -34 -14 0 -46 -61 -46 -89 0 -10 -8 -25 -18 -35 -18 -15
-20 -15 -37 4 -10 11 -19 33 -20 48 -1 16 -9 44 -18 63 -8 19 -20 66 -26 104
-14 87 -47 234 -69 300 -9 28 -19 73 -23 100 -9 60 -31 155 -60 250 -49 164
-57 205 -38 205 8 0 19 -4 25 -8z m3887 -73 c79 -37 72 -171 -11 -241 -41 -34
-132 -68 -183 -68 -71 0 -137 42 -154 98 -9 31 -22 19 -35 -31 -6 -23 -20 -63
-30 -89 -11 -26 -20 -58 -20 -73 0 -14 -8 -37 -17 -51 l-17 -26 -12 42 c-14
48 -12 57 51 230 57 156 86 187 200 217 60 15 189 11 228 -8z m-25478 -88 c68
-26 91 -49 109 -113 15 -51 15 -57 -4 -112 -11 -32 -29 -73 -40 -92 -45 -72
-174 -167 -265 -194 -22 -6 -51 -17 -64 -23 -13 -7 -63 -12 -111 -12 -79 0
-90 2 -122 27 -74 56 -97 161 -57 255 29 69 90 126 199 188 82 47 129 65 235
88 41 9 71 6 120 -12z m15356 -50 c19 -15 24 -28 23 -65 -1 -57 -17 -76 -62
-76 -50 0 -72 23 -72 77 0 73 58 107 111 64z m-140 -321 c15 -9 19 -22 19 -70
0 -66 -12 -80 -70 -80 -36 0 -106 35 -115 58 -7 19 18 47 55 62 18 7 27 17 23
26 -6 17 57 20 88 4z m9581 -597 c26 -24 22 -49 -12 -75 -16 -12 -30 -30 -30
-40 0 -18 -35 -43 -44 -30 -5 9 17 96 35 135 14 31 25 34 51 10z"/>
<path d="M7684 14315 c-9 -22 -3 -26 29 -17 36 9 38 26 4 30 -18 2 -29 -2 -33
-13z"/>
<path d="M7770 14290 c0 -5 5 -10 11 -10 5 0 7 5 4 10 -3 6 -8 10 -11 10 -2 0
-4 -4 -4 -10z"/>
<path d="M7570 14239 c-25 -28 -62 -78 -83 -112 -41 -67 -130 -237 -123 -237
2 0 31 48 64 108 68 121 91 154 156 222 43 45 57 71 39 70 -5 -1 -28 -23 -53
-51z"/>
<path d="M7705 14250 c-18 -8 -17 -9 8 -9 16 -1 26 3 22 9 -3 6 -7 10 -8 9 -1
0 -11 -4 -22 -9z"/>
<path d="M7700 14192 c0 -12 39 -47 45 -41 11 12 -9 49 -26 49 -11 0 -19 -4
-19 -8z"/>
<path d="M7555 14140 c-3 -5 1 -10 9 -10 9 0 16 5 16 10 0 6 -4 10 -9 10 -6 0
-13 -4 -16 -10z"/>
<path d="M7646 14109 c-65 -44 -135 -140 -210 -289 -54 -108 -105 -241 -111
-290 -1 -8 -5 -25 -9 -37 -4 -13 -4 -23 1 -23 5 0 70 59 146 131 195 186 253
265 277 382 13 64 3 112 -29 141 -16 15 -21 14 -65 -15z"/>
<path d="M7471 14021 c-7 -12 -7 -22 -2 -26 5 -3 13 4 16 16 9 28 -1 36 -14
10z"/>
<path d="M7436 13955 c-9 -26 -7 -32 5 -12 6 10 9 21 6 23 -2 3 -7 -2 -11 -11z"/>
<path d="M7574 13668 c-34 -35 -40 -45 -19 -31 37 26 80 71 74 78 -3 2 -27
-19 -55 -47z"/>
<path d="M7286 13675 c-9 -26 -7 -32 5 -12 6 10 9 21 6 23 -2 3 -7 -2 -11 -11z"/>
<path d="M7535 13486 c-32 -14 -75 -56 -58 -56 11 0 93 57 93 65 0 6 0 6 -35
-9z"/>
<path d="M7221 13464 c0 -11 3 -14 6 -6 3 7 2 16 -1 19 -3 4 -6 -2 -5 -13z"/>
<path d="M7387 13368 c-45 -32 -58 -48 -38 -48 6 0 31 18 56 40 56 48 47 52
-18 8z"/>
<path d="M7288 13319 c-18 -10 -25 -39 -10 -39 13 1 42 27 42 39 0 13 -9 14
-32 0z"/>
<path d="M7124 13226 c-10 -8 -16 -17 -13 -20 3 -3 14 3 24 14 21 23 17 26
-11 6z"/>
<path d="M7054 13109 c-27 -17 -59 -40 -71 -51 -12 -12 -31 -26 -41 -32 -11
-6 -53 -36 -94 -67 -60 -46 -86 -75 -138 -154 -35 -54 -71 -120 -82 -147 -25
-65 -23 -154 5 -260 34 -125 84 -183 182 -209 22 -6 54 -18 72 -26 44 -21 60
-12 66 39 15 112 33 205 45 225 6 12 12 34 12 50 0 15 10 70 22 120 12 51 18
96 14 100 -4 5 -38 -8 -74 -28 -114 -61 -159 -154 -112 -231 26 -42 25 -48 -5
-48 -39 0 -86 49 -95 99 -11 64 -2 113 39 193 31 62 45 78 96 112 33 22 92 52
130 67 l70 27 6 100 c4 55 9 112 13 126 8 33 1 33 -60 -5z"/>
<path d="M6814 13067 c-11 -7 -38 -28 -60 -48 -21 -20 -55 -50 -74 -67 -19
-17 -29 -32 -21 -32 8 0 38 21 66 48 29 26 70 61 91 79 39 32 38 43 -2 20z"/>
<path d="M6642 12987 c-55 -45 -63 -58 -33 -50 21 5 97 80 90 88 -3 2 -28 -14
-57 -38z"/>
<path d="M7165 13004 c-4 -16 -11 -39 -16 -52 -13 -33 -11 -64 4 -60 7 3 15
31 18 69 7 68 4 90 -6 43z"/>
<path d="M6537 12841 c-26 -28 -47 -56 -47 -62 0 -7 -16 -45 -36 -85 -20 -40
-38 -92 -41 -116 l-5 -43 21 33 c12 18 21 43 21 56 0 35 64 164 106 214 51 61
37 62 -19 3z"/>
<path d="M6575 12795 c-15 -19 -26 -38 -23 -41 3 -2 18 12 33 31 15 20 25 39
22 41 -3 3 -17 -11 -32 -31z"/>
<path d="M7370 12759 c7 -11 14 -19 16 -16 7 7 -7 37 -17 37 -6 0 -5 -9 1 -21z"/>
<path d="M6848 12723 c-15 -20 -41 -74 -36 -79 2 -1 15 20 30 47 28 53 29 59
6 32z"/>
<path d="M6953 12710 c-13 -5 -23 -11 -23 -14 0 -7 40 6 46 15 6 10 6 10 -23
-1z"/>
<path d="M7099 12693 c0 -10 -4 -40 -8 -66 -4 -26 -5 -44 0 -40 9 10 23 123
15 123 -3 0 -6 -8 -7 -17z"/>
<path d="M7220 12701 c0 -10 83 -62 89 -55 3 2 -8 16 -24 29 -31 24 -65 38
-65 26z"/>
<path d="M7409 12659 c29 -28 55 -48 58 -45 6 6 -88 96 -101 96 -6 0 14 -23
43 -51z"/>
<path d="M7155 12653 c-5 -32 -36 -185 -96 -483 -7 -30 -14 -61 -17 -69 -4
-11 4 -9 29 6 19 12 63 37 99 56 77 41 113 87 134 170 13 51 14 68 1 130 -18
94 -36 135 -77 173 -65 60 -66 60 -73 17z"/>
<path d="M6547 12643 c-8 -21 -17 -54 -21 -73 -3 -19 5 -4 19 34 26 73 28 104
2 39z"/>
<path d="M7436 12533 c9 -26 13 -66 10 -87 -3 -27 -2 -35 5 -25 5 7 9 39 9 70
0 43 -5 60 -19 73 -19 18 -19 17 -5 -31z"/>
<path d="M6440 12523 c0 -63 21 -211 35 -248 16 -44 96 -130 115 -123 12 4
-29 89 -60 123 -23 25 -55 119 -70 208 -13 70 -20 86 -20 40z"/>
<path d="M6402 12467 c3 -32 10 -63 17 -70 9 -9 10 2 5 48 -9 80 -28 99 -22
22z"/>
<path d="M6550 12491 c0 -11 4 -22 9 -25 4 -3 6 6 3 19 -5 30 -12 33 -12 6z"/>
<path d="M7331 12505 c1 -19 18 -51 18 -35 0 8 -4 22 -9 30 -5 8 -9 11 -9 5z"/>
<path d="M6585 12410 c13 -42 24 -70 29 -70 8 0 -15 74 -26 85 -7 7 -8 2 -3
-15z"/>
<path d="M7041 12383 c0 -25 1 -26 9 -8 12 27 12 35 0 35 -5 0 -10 -12 -9 -27z"/>
<path d="M7435 12290 c-8 -16 -15 -37 -15 -47 0 -16 1 -16 14 2 14 21 30 75
21 75 -2 0 -11 -13 -20 -30z"/>
<path d="M6630 12206 c0 -14 29 -62 47 -79 17 -14 25 -15 52 -6 l33 12 -52 28
c-29 16 -59 34 -66 40 -8 6 -14 8 -14 5z"/>
<path d="M6500 12163 c0 -13 85 -82 115 -93 46 -17 52 -10 10 12 -22 11 -59
36 -82 55 -24 19 -43 30 -43 26z"/>
<path d="M7366 12143 c-6 -14 -5 -15 5 -6 7 7 10 15 7 18 -3 3 -9 -2 -12 -12z"/>
<path d="M7194 12075 c-27 -19 -43 -35 -36 -35 7 0 34 16 59 35 25 19 42 35
36 35 -5 0 -32 -16 -59 -35z"/>
<path d="M6770 12090 c-30 -4 -53 -8 -50 -9 3 -1 43 -5 90 -10 47 -5 93 -13
103 -16 9 -4 17 -3 17 2 0 12 -66 43 -88 41 -9 -1 -42 -4 -72 -8z"/>
<path d="M7100 12060 c-25 -16 -42 -30 -37 -30 8 0 87 51 87 56 0 7 -4 5 -50
-26z"/>
<path d="M7007 11973 c-17 -30 -38 -118 -35 -150 l3 -38 13 44 c8 24 14 57 14
75 0 17 5 39 10 49 9 18 5 37 -5 20z"/>
<path d="M6444 11765 c-8 -21 4 -35 32 -35 26 0 32 18 12 38 -16 16 -37 15
-44 -3z"/>
<path d="M6530 11773 c0 -11 40 -76 45 -72 9 10 -10 61 -26 70 -11 5 -19 6
-19 2z"/>
<path d="M6470 11580 c0 -11 4 -20 9 -20 5 0 7 9 4 20 -3 11 -7 20 -9 20 -2 0
-4 -9 -4 -20z"/>
<path d="M6550 11590 c0 -5 5 -10 10 -10 6 0 10 5 10 10 0 6 -4 10 -10 10 -5
0 -10 -4 -10 -10z"/>
<path d="M6392 11505 c0 -16 2 -22 5 -12 2 9 2 23 0 30 -3 6 -5 -1 -5 -18z"/>
<path d="M6290 11493 c0 -5 5 -15 10 -23 8 -12 10 -11 10 8 0 12 -4 22 -10 22
-5 0 -10 -3 -10 -7z"/>
<path d="M6410 11455 c-10 -13 -11 -18 -1 -28 10 -9 15 -8 26 7 23 31 -1 50
-25 21z"/>
<path d="M6460 11420 c0 -28 2 -30 28 -24 37 9 38 11 17 34 -27 29 -45 25 -45
-10z"/>
<path d="M6723 11388 c-40 -34 -70 -64 -68 -66 8 -9 91 47 130 87 61 63 20 49
-62 -21z"/>
<path d="M6605 11370 c-11 -5 -32 -9 -47 -9 -16 -1 -28 -6 -28 -12 0 -16 70
-4 89 16 17 17 15 17 -14 5z"/>
<path d="M12808 13614 c-5 -4 -8 -37 -8 -73 1 -50 3 -62 11 -48 11 19 8 133
-3 121z"/>
<path d="M12901 13325 c0 -5 17 -30 39 -55 22 -25 39 -40 39 -35 0 6 -17 30
-39 55 -22 25 -39 41 -39 35z"/>
<path d="M13119 13034 c14 -39 16 -42 19 -20 3 26 -13 66 -27 66 -5 0 -1 -21
8 -46z"/>
<path d="M12812 13035 c0 -16 2 -22 5 -12 2 9 2 23 0 30 -3 6 -5 -1 -5 -18z"/>
<path d="M12782 12900 c0 -14 2 -19 5 -12 2 6 2 18 0 25 -3 6 -5 1 -5 -13z"/>
<path d="M12786 12822 c-2 -4 -1 -14 5 -22 7 -12 9 -10 9 8 0 23 -5 28 -14 14z"/>
<path d="M12791 12604 c0 -11 3 -14 6 -6 3 7 2 16 -1 19 -3 4 -6 -2 -5 -13z"/>
<path d="M12485 12425 c-22 -13 -37 -25 -33 -25 9 0 88 41 88 46 0 9 -17 3
-55 -21z"/>
<path d="M12805 12411 c-3 -5 -1 -12 5 -16 5 -3 10 1 10 9 0 18 -6 21 -15 7z"/>
<path d="M12331 12276 c-8 -13 -12 -29 -9 -36 2 -6 11 5 21 24 18 40 8 50 -12
12z"/>
<path d="M12346 12162 c-4 -13 -5 -26 -2 -29 10 -11 18 4 14 29 l-4 23 -8 -23z"/>
<path d="M12505 12170 c-7 -12 2 -12 30 0 19 8 19 9 -2 9 -12 1 -25 -3 -28 -9z"/>
<path d="M12485 12110 c-3 -5 1 -10 10 -10 9 0 13 5 10 10 -3 6 -8 10 -10 10
-2 0 -7 -4 -10 -10z"/>
<path d="M2581 13194 c0 -11 3 -14 6 -6 3 7 2 16 -1 19 -3 4 -6 -2 -5 -13z"/>
<path d="M2591 12844 c0 -96 4 -139 9 -121 9 28 4 256 -5 265 -3 3 -5 -62 -4
-144z"/>
<path d="M2572 12930 c0 -14 2 -19 5 -12 2 6 2 18 0 25 -3 6 -5 1 -5 -13z"/>
<path d="M2592 12650 c0 -14 2 -19 5 -12 2 6 2 18 0 25 -3 6 -5 1 -5 -13z"/>
<path d="M2429 12360 c56 -26 75 -26 36 0 -16 11 -41 20 -55 20 -21 0 -17 -4
19 -20z"/>
<path d="M2285 12355 l-30 -14 35 6 c19 3 39 10 45 14 14 14 -16 10 -50 -6z"/>
<path d="M2335 12305 c-38 -7 -87 -20 -108 -30 -68 -29 -145 -86 -157 -116
-11 -26 -10 -34 14 -69 26 -40 27 -40 91 -40 100 0 250 65 327 142 12 12 18
33 18 63 0 43 -1 44 -37 50 -21 3 -47 8 -58 9 -11 2 -51 -2 -90 -9z"/>
<path d="M2020 12078 c0 -17 8 -31 20 -38 25 -14 25 -3 0 35 l-20 30 0 -27z"/>
<path d="M2409 12030 l-24 -20 28 11 c15 7 27 16 27 21 0 12 -5 10 -31 -12z"/>
<path d="M24380 13362 c22 -14 97 -26 85 -14 -5 6 -30 13 -55 16 -29 5 -40 4
-30 -2z"/>
<path d="M24730 13350 c8 -5 26 -9 40 -9 23 0 23 1 5 9 -11 5 -29 9 -40 9 -17
1 -17 -1 -5 -9z"/>
<path d="M24820 13336 c0 -2 14 -6 30 -8 17 -3 30 -1 30 4 0 4 -13 8 -30 8
-16 0 -30 -2 -30 -4z"/>
<path d="M24336 13308 c-8 -32 -7 -76 2 -82 4 -2 66 -12 137 -21 72 -9 175
-25 230 -36 142 -27 141 -27 149 23 4 26 3 44 -4 48 -6 4 -48 12 -93 19 -45 7
-147 26 -226 42 -175 35 -187 36 -195 7z"/>
<path d="M24953 13313 c9 -2 23 -2 30 0 6 3 -1 5 -18 5 -16 0 -22 -2 -12 -5z"/>
<path d="M25660 13240 c8 -5 22 -9 30 -9 10 0 8 3 -5 9 -27 12 -43 12 -25 0z"/>
<path d="M24927 13209 c-15 -53 -9 -66 31 -73 47 -8 135 -23 210 -36 31 -6 71
-12 87 -15 17 -3 56 -10 89 -16 32 -6 62 -7 67 -2 4 4 11 26 15 49 l6 41 -43
6 c-38 6 -316 48 -420 64 -32 5 -37 2 -42 -18z"/>
<path d="M25820 13210 c14 -4 36 -8 50 -8 l25 0 -25 8 c-14 4 -36 8 -50 8
l-25 0 25 -8z"/>
<path d="M24882 13190 c0 -14 2 -19 5 -12 2 6 2 18 0 25 -3 6 -5 1 -5 -13z"/>
<path d="M25908 13193 c6 -2 18 -2 25 0 6 3 1 5 -13 5 -14 0 -19 -2 -12 -5z"/>
<path d="M24350 13168 c0 -4 6 -8 14 -8 8 0 21 -3 30 -6 9 -3 16 -2 16 4 0 5
-13 12 -30 14 -16 3 -30 1 -30 -4z"/>
<path d="M25496 13118 c-13 -63 -8 -78 22 -78 16 0 69 -6 118 -14 49 -8 139
-22 199 -31 61 -9 122 -18 137 -21 23 -5 28 -1 33 20 17 82 18 76 -14 76 -16
0 -33 5 -36 10 -3 6 -23 10 -44 10 -21 0 -98 9 -172 21 -74 11 -152 22 -174
25 -22 3 -45 6 -51 9 -7 2 -15 -10 -18 -27z"/>
<path d="M25990 13110 c0 -5 9 -10 20 -10 11 0 20 5 20 10 0 6 -9 10 -20 10
-11 0 -20 -4 -20 -10z"/>
<path d="M24846 13014 c-3 -9 -6 -28 -6 -42 l1 -27 14 25 c16 28 19 60 6 60
-5 0 -12 -7 -15 -16z"/>
<path d="M25693 12943 c9 -2 23 -2 30 0 6 3 -1 5 -18 5 -16 0 -22 -2 -12 -5z"/>
<path d="M25758 12939 c15 -12 201 -42 218 -34 17 7 17 8 -6 15 -24 8 -24 8
-2 9 12 1 22 4 22 9 0 4 -54 7 -119 7 -66 0 -117 -3 -113 -6z"/>
<path d="M25386 12929 c-9 -30 -13 -68 -5 -64 10 7 23 65 15 72 -3 3 -8 0 -10
-8z"/>
<path d="M25427 12923 c-3 -4 -15 -66 -27 -138 -12 -71 -28 -151 -36 -178 -9
-26 -14 -52 -12 -57 5 -17 44 126 68 253 20 104 23 146 7 120z"/>
<path d="M24820 12858 c0 -49 5 -47 13 5 3 20 2 37 -4 37 -5 0 -9 -19 -9 -42z"/>
<path d="M24197 12666 c-4 -10 -5 -21 -2 -24 9 -9 17 6 13 25 -3 17 -4 17 -11
-1z"/>
<path d="M25957 12636 c-4 -10 -7 -25 -6 -34 0 -11 4 -9 10 7 5 13 8 29 6 35
-2 5 -6 2 -10 -8z"/>
<path d="M24038 12583 c6 -2 18 -2 25 0 6 3 1 5 -13 5 -14 0 -19 -2 -12 -5z"/>
<path d="M23970 12570 c-18 -12 -2 -12 25 0 13 6 15 9 5 9 -8 0 -22 -4 -30 -9z"/>
<path d="M24157 12573 c-4 -3 -7 -11 -7 -17 0 -6 5 -5 12 2 6 6 9 14 7 17 -3
3 -9 2 -12 -2z"/>
<path d="M25357 12494 c-19 -69 -18 -96 1 -47 12 30 26 113 20 113 -2 0 -12
-30 -21 -66z"/>
<path d="M25936 12545 c-3 -9 -6 -29 -5 -43 1 -22 3 -19 10 12 10 40 6 60 -5
31z"/>
<path d="M24513 12514 c-20 -18 -22 -22 -7 -15 21 10 52 41 41 41 -3 0 -19
-12 -34 -26z"/>
<path d="M23849 12510 c-13 -10 -19 -19 -13 -20 6 0 19 9 29 20 23 26 14 26
-16 0z"/>
<path d="M24579 12499 l-24 -20 23 5 c51 13 62 18 62 27 0 16 -37 10 -61 -12z"/>
<path d="M24065 12469 c-4 -6 -5 -13 -2 -16 7 -7 27 6 27 18 0 12 -17 12 -25
-2z"/>
<path d="M24444 12464 c-18 -14 -18 -15 4 -4 12 6 22 13 22 15 0 8 -5 6 -26
-11z"/>
<path d="M24115 12411 c-6 -11 9 -23 19 -14 9 9 7 23 -3 23 -6 0 -12 -4 -16
-9z"/>
<path d="M24417 12413 c-4 -3 -7 -13 -7 -22 1 -13 3 -13 11 2 11 19 8 33 -4
20z"/>
<path d="M23840 12371 c0 -20 8 -24 65 -36 34 -6 165 29 165 45 0 12 -2 12
-37 -1 -52 -20 -128 -22 -162 -5 -30 16 -31 16 -31 -3z"/>
<path d="M24677 12364 c-30 -27 -31 -39 -4 -28 17 6 52 54 40 54 -5 0 -21 -12
-36 -26z"/>
<path d="M23775 12350 c3 -5 8 -10 11 -10 2 0 4 5 4 10 0 6 -5 10 -11 10 -5 0
-7 -4 -4 -10z"/>
<path d="M24426 12335 c-3 -10 -2 -23 4 -29 15 -15 24 1 13 26 -9 20 -10 20
-17 3z"/>
<path d="M24540 12331 c-48 -15 -52 -18 -29 -23 32 -6 91 12 97 30 5 15 1 14
-68 -7z"/>
<path d="M25030 12330 c-6 -12 -10 -33 -8 -48 2 -21 5 -17 14 21 11 52 10 57
-6 27z"/>
<path d="M25620 12249 c-42 -25 -80 -59 -80 -72 0 -5 12 1 28 13 15 11 47 34
71 51 51 33 35 40 -19 8z"/>
<path d="M25755 12263 c22 -3 45 -9 52 -15 10 -8 13 -6 13 6 0 13 -10 16 -52
14 -48 -1 -49 -2 -13 -5z"/>
<path d="M25655 12180 c-17 -19 -17 -19 16 -10 45 13 60 30 28 30 -14 0 -34
-9 -44 -20z"/>
<path d="M25837 12116 c-18 -19 -22 -36 -8 -36 13 0 33 28 29 41 -3 8 -9 6
-21 -5z"/>
<path d="M25490 12065 c0 -14 4 -25 9 -25 4 0 6 11 3 25 -2 14 -6 25 -8 25 -2
0 -4 -11 -4 -25z"/>
<path d="M25560 12041 c0 -17 39 -33 56 -23 18 10 12 16 -28 26 -16 4 -28 2
-28 -3z"/>
<path d="M21792 9333 c-1 -17 -5 -40 -8 -50 -5 -14 -4 -15 5 -7 7 7 11 28 8
50 -3 35 -4 35 -5 7z"/>
<path d="M21690 8834 c0 -28 15 -25 23 6 3 13 0 20 -9 20 -8 0 -14 -10 -14
-26z"/>
<path d="M21658 8513 c6 -2 18 -2 25 0 6 3 1 5 -13 5 -14 0 -19 -2 -12 -5z"/>
<path d="M21900 8487 c0 -14 5 -29 10 -32 7 -4 9 3 6 20 -7 37 -16 44 -16 12z"/>
<path d="M21925 8400 c3 -5 8 -10 11 -10 2 0 4 5 4 10 0 6 -5 10 -11 10 -5 0
-7 -4 -4 -10z"/>
<path d="M10177 7969 c-40 -21 -127 -124 -127 -150 0 -29 26 -41 71 -34 71 12
168 126 155 181 -8 30 -45 31 -99 3z"/>
<path d="M26298 7773 c12 -2 30 -2 40 0 9 3 -1 5 -23 4 -22 0 -30 -2 -17 -4z"/>
<path d="M26740 7770 c-11 -7 1 -10 40 -10 30 0 62 5 70 10 11 7 -1 10 -40 10
-30 0 -62 -5 -70 -10z"/>
<path d="M26185 7740 c-3 -5 -1 -10 4 -10 6 0 11 5 11 10 0 6 -2 10 -4 10 -3
0 -8 -4 -11 -10z"/>
<path d="M27072 7720 c-11 -19 -23 -20 -188 -20 l-175 0 3 -37 3 -38 160 -3
c88 -1 164 -7 169 -12 6 -6 21 -10 36 -10 24 0 25 2 27 70 2 73 -10 90 -35 50z"/>
<path d="M26196 7653 c4 -26 7 -57 8 -68 1 -17 9 -20 61 -22 45 -2 54 0 38 7
-13 5 -23 14 -23 19 0 14 44 19 196 24 148 5 174 14 174 57 l0 30 -231 0 -230
0 7 -47z"/>
<path d="M26953 7068 c-21 -24 -37 -68 -24 -68 4 0 13 10 19 23 7 12 19 32 28
45 9 12 12 22 7 22 -5 0 -19 -10 -30 -22z"/>
<path d="M26626 7055 c-17 -13 -18 -15 -2 -21 20 -8 29 -1 24 20 -3 13 -6 13
-22 1z"/>
<path d="M26454 7002 c-12 -15 -26 -37 -33 -50 -12 -22 -11 -23 8 -12 21 11
68 91 54 89 -5 0 -17 -12 -29 -27z"/>
<path d="M26030 7010 c0 -5 12 -10 26 -10 14 0 23 4 19 10 -3 6 -15 10 -26 10
-10 0 -19 -4 -19 -10z"/>
<path d="M26997 7003 c-2 -10 -8 -26 -12 -35 -5 -13 -2 -18 9 -18 12 0 16 10
16 35 0 38 -5 45 -13 18z"/>
<path d="M26050 6961 c0 -5 9 -7 20 -4 11 3 20 7 20 9 0 2 -9 4 -20 4 -11 0
-20 -4 -20 -9z"/>
<path d="M25850 6945 c0 -8 5 -15 10 -15 6 0 10 7 10 15 0 8 -4 15 -10 15 -5
0 -10 -7 -10 -15z"/>
<path d="M25995 6920 c3 -5 18 -10 32 -10 32 0 28 5 -10 14 -19 4 -26 3 -22
-4z"/>
<path d="M26420 6900 c0 -5 5 -10 10 -10 6 0 10 5 10 10 0 6 -4 10 -10 10 -5
0 -10 -4 -10 -10z"/>
<path d="M18142 4980 c0 -19 2 -27 5 -17 2 9 2 25 0 35 -3 9 -5 1 -5 -18z"/>
<path d="M18140 4816 c0 -14 5 -26 10 -26 6 0 10 9 10 19 0 11 -4 23 -10 26
-6 4 -10 -5 -10 -19z"/>
<path d="M18143 4655 c0 -121 0 -126 10 -68 6 40 6 85 0 130 -10 65 -10 63
-10 -62z"/>
<path d="M17815 4300 c-18 -5 -2 -6 40 -3 39 3 72 7 74 9 8 7 -84 2 -114 -6z"/>
<path d="M17860 4246 c-72 -16 -112 -38 -171 -93 -58 -54 -79 -91 -68 -120 35
-94 248 -56 437 78 35 25 42 36 42 63 0 51 -32 73 -115 79 -41 3 -93 1 -125
-7z"/>
<path d="M18040 4019 c-43 -40 -48 -47 -22 -33 35 20 102 84 86 84 -5 -1 -34
-24 -64 -51z"/>
<path d="M17629 3960 c13 -11 31 -20 41 -20 10 0 27 -2 37 -5 10 -3 -6 6 -36
20 -64 30 -74 31 -42 5z"/>
<path d="M10690 5235 c0 -14 4 -25 9 -25 4 0 6 11 3 25 -2 14 -6 25 -8 25 -2
0 -4 -11 -4 -25z"/>
<path d="M10850 5144 c0 -5 25 -34 56 -64 54 -54 98 -121 124 -190 30 -79 37
-36 9 55 -9 30 -189 220 -189 199z"/>
<path d="M10688 5093 c-5 -71 38 -135 219 -323 39 -41 81 -86 93 -100 l21 -25
-6 80 c-10 131 -58 209 -164 265 -32 17 -81 51 -109 76 -42 37 -52 42 -54 27z"/>
<path d="M10807 5059 c18 -18 35 -31 37 -28 3 3 -12 18 -32 33 l-37 29 32 -34z"/>
<path d="M10679 4852 c5 -10 18 -25 27 -33 16 -12 16 -10 -1 19 -20 33 -43 46
-26 14z"/>
<path d="M10760 4789 c0 -9 9 -24 20 -34 26 -23 26 -8 0 25 -14 18 -20 21 -20
9z"/>
<path d="M10850 4745 c0 -10 57 -90 74 -105 34 -27 22 -3 -25 53 -27 32 -49
56 -49 52z"/>
<path d="M10603 4295 c0 -22 2 -30 4 -17 2 12 2 30 0 40 -3 9 -5 -1 -4 -23z"/>
<path d="M10312 4203 c-18 -8 -31 -18 -28 -20 2 -2 21 5 43 16 45 24 33 28
-15 4z"/>
<path d="M10559 3999 c-23 -29 -27 -39 -13 -31 17 9 61 72 50 72 -2 0 -19 -19
-37 -41z"/>
<path d="M10146 3952 c-13 -22 13 -60 49 -72 20 -7 39 -9 42 -6 4 3 -8 11 -26
17 -21 8 -38 22 -46 42 -7 16 -15 25 -19 19z"/>
<path d="M10275 3880 c-3 -5 -1 -10 4 -10 6 0 11 5 11 10 0 6 -2 10 -4 10 -3
0 -8 -4 -11 -10z"/>
<path d="M25258 2475 c-82 -43 -98 -87 -48 -136 29 -29 32 -30 97 -24 82 8
109 24 133 78 24 52 14 70 -47 91 -61 21 -79 20 -135 -9z"/>
<path d="M16574 2046 c-3 -19 -1 -43 5 -53 8 -14 10 -8 11 35 0 60 -6 67 -16
18z"/>
<path d="M16623 2025 c0 -22 2 -30 4 -17 2 12 2 30 0 40 -3 9 -5 -1 -4 -23z"/>
<path d="M17155 1963 c5 -10 14 -43 21 -73 l12 -55 1 47 c1 49 -15 98 -32 98
-5 0 -6 -8 -2 -17z"/>
<path d="M16542 1935 c0 -16 2 -22 5 -12 2 9 2 23 0 30 -3 6 -5 -1 -5 -18z"/>
<path d="M17120 1819 c0 -8 -16 -40 -35 -73 -42 -69 -40 -86 4 -26 29 41 48
96 37 107 -3 4 -6 0 -6 -8z"/>
<path d="M17015 1595 c-27 -25 -45 -45 -40 -45 6 0 31 20 55 45 56 57 49 57
-15 0z"/>
<path d="M16915 1452 c-96 -83 -106 -89 -226 -134 -69 -26 -163 -56 -210 -67
-163 -38 -165 -39 -139 -40 14 0 54 6 90 15 45 11 87 14 136 10 59 -6 74 -4
95 12 13 10 43 26 65 35 23 8 58 27 79 41 21 14 43 26 50 26 6 0 43 33 82 73
67 70 102 117 86 117 -5 0 -53 -39 -108 -88z"/>
<path d="M16910 1510 c-9 -6 -10 -10 -3 -10 6 0 15 5 18 10 8 12 4 12 -15 0z"/>
<path d="M16854 1468 l-19 -23 23 19 c21 18 27 26 19 26 -2 0 -12 -10 -23 -22z"/>
<path d="M16804 1428 l-19 -23 23 19 c21 18 27 26 19 26 -2 0 -12 -10 -23 -22z"/>
<path d="M16473 1209 c-18 -5 -33 -11 -33 -12 0 -7 126 6 140 14 21 12 -65 10
-107 -2z"/>
<path d="M23975 1460 c-11 -5 -34 -9 -51 -9 -24 -1 -33 -6 -38 -23 -11 -44 -6
-139 10 -169 14 -28 14 -32 -2 -43 -16 -12 -15 -15 6 -45 l24 -31 29 47 c56
90 84 191 69 247 -9 33 -18 38 -47 26z"/>
<path d="M24062 1400 c0 -14 2 -19 5 -12 2 6 2 18 0 25 -3 6 -5 1 -5 -13z"/>
<path d="M27345 1965 c-27 -8 -51 -19 -53 -25 -2 -6 -16 -22 -30 -35 -29 -27
-32 -67 -8 -113 19 -37 32 -42 110 -42 107 0 158 27 191 100 27 59 12 101 -40
116 -52 16 -108 15 -170 -1z"/>
<path d="M1978 1873 c7 -3 16 -2 19 1 4 3 -2 6 -13 5 -11 0 -14 -3 -6 -6z"/>
<path d="M2010 1866 c0 -2 7 -7 16 -10 8 -3 12 -2 9 4 -6 10 -25 14 -25 6z"/>
<path d="M2075 1826 c17 -14 40 -38 52 -53 l23 -28 -8 28 c-5 18 -22 36 -52
53 l-45 25 30 -25z"/>
<path d="M1732 1779 c-55 -28 -75 -59 -75 -117 0 -42 4 -49 46 -87 31 -29 64
-47 104 -58 90 -26 124 -22 175 16 35 27 44 40 46 70 5 63 -34 117 -117 161
-80 42 -118 45 -179 15z"/>
<path d="M2092 1740 c0 -14 2 -19 5 -12 2 6 2 18 0 25 -3 6 -5 1 -5 -13z"/>
<path d="M1571 1662 c-13 -25 -14 -52 -2 -52 10 0 26 58 18 67 -3 2 -10 -4
-16 -15z"/>
<path d="M1550 1479 c0 -20 27 -57 52 -70 18 -10 17 -6 -8 27 -41 57 -44 60
-44 43z"/>
<path d="M1606 1459 c18 -20 65 -49 79 -49 15 0 -9 21 -52 45 -42 23 -45 23
-27 4z"/>
</g>
</svg>
